<?xml version="1.0" encoding="UTF-8" standalone="no"?>
<!DOCTYPE svg PUBLIC "-//W3C//DTD SVG 1.1//EN"
 "http://www.w3.org/Graphics/SVG/1.1/DTD/svg11.dtd">
<!-- Generated by graphviz version 2.40.1 (20161225.0304)
 -->
<!-- Title: dump Pages: 1 -->
<svg width="362pt" height="333pt"
 viewBox="0.00 0.00 362.00 333.00" xmlns="http://www.w3.org/2000/svg" xmlns:xlink="http://www.w3.org/1999/xlink">
<g id="graph0" class="graph" transform="scale(1 1) rotate(0) translate(4 329)">
<title>dump</title>
<polygon fill="#ffffff" stroke="transparent" points="-4,4 -4,-329 358,-329 358,4 -4,4"/>
<!-- fbr1 -->
<g id="node1" class="node">
<title>fbr1</title>
<polygon fill="none" stroke="#000000" points="109,-66 0,-66 0,-28 109,-28 109,-66"/>
<text text-anchor="middle" x="54.5" y="-50.8" font-family="Times,serif" font-size="14.00" fill="#000000">FELIX BR</text>
<text text-anchor="middle" x="54.5" y="-35.8" font-family="Times,serif" font-size="14.00" fill="#000000">TPSender (PUB)</text>
</g>
<!-- pbr1 -->
<g id="node4" class="node">
<title>pbr1</title>
<polygon fill="none" stroke="#000000" points="264,-94 145,-94 145,-56 264,-56 264,-94"/>
<text text-anchor="middle" x="204.5" y="-78.8" font-family="Times,serif" font-size="14.00" fill="#000000">TP BR</text>
<text text-anchor="middle" x="204.5" y="-63.8" font-family="Times,serif" font-size="14.00" fill="#000000">TPReceiver (SUB)</text>
</g>
<!-- fbr1&#45;&gt;pbr1 -->
<g id="edge1" class="edge">
<title>fbr1&#45;&gt;pbr1</title>
<path fill="none" stroke="#000000" stroke-dasharray="1,5" d="M109.0778,-57.1878C117.4466,-58.75 126.1827,-60.3808 134.824,-61.9938"/>
<polygon fill="#000000" stroke="#000000" points="134.4246,-65.4796 144.897,-63.8741 135.7091,-58.5985 134.4246,-65.4796"/>
</g>
<!-- znc1 -->
<g id="node7" class="node">
<title>znc1</title>
<polygon fill="none" stroke="#000000" points="232.5,-38 176.5,-38 176.5,0 232.5,0 232.5,-38"/>
<text text-anchor="middle" x="204.5" y="-22.8" font-family="Times,serif" font-size="14.00" fill="#000000">czmqat</text>
<text text-anchor="middle" x="204.5" y="-7.8" font-family="Times,serif" font-size="14.00" fill="#000000">(SUB)</text>
</g>
<!-- fbr1&#45;&gt;znc1 -->
<g id="edge4" class="edge">
<title>fbr1&#45;&gt;znc1</title>
<path fill="none" stroke="#000000" stroke-dasharray="1,5" d="M109.0778,-36.8122C127.9463,-33.29 148.6815,-29.4194 165.9891,-26.1887"/>
<polygon fill="#000000" stroke="#000000" points="167.0872,-29.5443 176.2751,-24.2686 165.8027,-22.6631 167.0872,-29.5443"/>
</g>
<!-- fbr2 -->
<g id="node2" class="node">
<title>fbr2</title>
<polygon fill="none" stroke="#000000" points="109,-199 0,-199 0,-161 109,-161 109,-199"/>
<text text-anchor="middle" x="54.5" y="-183.8" font-family="Times,serif" font-size="14.00" fill="#000000">FELIX BR</text>
<text text-anchor="middle" x="54.5" y="-168.8" font-family="Times,serif" font-size="14.00" fill="#000000">TPSender (PUB)</text>
</g>
<!-- pbr2 -->
<g id="node5" class="node">
<title>pbr2</title>
<polygon fill="none" stroke="#000000" points="264,-206 145,-206 145,-168 264,-168 264,-206"/>
<text text-anchor="middle" x="204.5" y="-190.8" font-family="Times,serif" font-size="14.00" fill="#000000">TP BR</text>
<text text-anchor="middle" x="204.5" y="-175.8" font-family="Times,serif" font-size="14.00" fill="#000000">TPReceiver (SUB)</text>
</g>
<!-- fbr2&#45;&gt;pbr2 -->
<g id="edge2" class="edge">
<title>fbr2&#45;&gt;pbr2</title>
<path fill="none" stroke="#000000" stroke-dasharray="1,5" d="M109.0778,-182.547C117.4466,-182.9375 126.1827,-183.3452 134.824,-183.7485"/>
<polygon fill="#000000" stroke="#000000" points="134.7447,-187.2485 144.897,-184.2185 135.0711,-180.2561 134.7447,-187.2485"/>
</g>
<!-- znc2 -->
<g id="node8" class="node">
<title>znc2</title>
<polygon fill="none" stroke="#000000" points="232.5,-150 176.5,-150 176.5,-112 232.5,-112 232.5,-150"/>
<text text-anchor="middle" x="204.5" y="-134.8" font-family="Times,serif" font-size="14.00" fill="#000000">czmqat</text>
<text text-anchor="middle" x="204.5" y="-119.8" font-family="Times,serif" font-size="14.00" fill="#000000">(SUB)</text>
</g>
<!-- fbr2&#45;&gt;znc2 -->
<g id="edge5" class="edge">
<title>fbr2&#45;&gt;znc2</title>
<path fill="none" stroke="#000000" stroke-dasharray="1,5" d="M109.0778,-162.1713C128.1243,-155.9494 149.0729,-149.1062 166.478,-143.4205"/>
<polygon fill="#000000" stroke="#000000" points="167.8563,-146.6524 176.2751,-140.2201 165.6826,-139.9984 167.8563,-146.6524"/>
</g>
<!-- fbr3 -->
<g id="node3" class="node">
<title>fbr3</title>
<polygon fill="none" stroke="#000000" points="109,-283 0,-283 0,-245 109,-245 109,-283"/>
<text text-anchor="middle" x="54.5" y="-267.8" font-family="Times,serif" font-size="14.00" fill="#000000">FELIX BR</text>
<text text-anchor="middle" x="54.5" y="-252.8" font-family="Times,serif" font-size="14.00" fill="#000000">TPSender (PUB)</text>
</g>
<!-- pbr3 -->
<g id="node6" class="node">
<title>pbr3</title>
<polygon fill="none" stroke="#000000" points="264,-325 145,-325 145,-287 264,-287 264,-325"/>
<text text-anchor="middle" x="204.5" y="-309.8" font-family="Times,serif" font-size="14.00" fill="#000000">TP BR</text>
<text text-anchor="middle" x="204.5" y="-294.8" font-family="Times,serif" font-size="14.00" fill="#000000">TPReceiver (SUB)</text>
</g>
<!-- fbr3&#45;&gt;pbr3 -->
<g id="edge3" class="edge">
<title>fbr3&#45;&gt;pbr3</title>
<path fill="none" stroke="#000000" stroke-dasharray="1,5" d="M109.0778,-279.2818C117.5376,-281.6505 126.3726,-284.1243 135.1058,-286.5696"/>
<polygon fill="#000000" stroke="#000000" points="134.3237,-289.9852 144.897,-289.3112 136.2111,-283.2444 134.3237,-289.9852"/>
</g>
<!-- znc3 -->
<g id="node9" class="node">
<title>znc3</title>
<polygon fill="none" stroke="#000000" points="232.5,-269 176.5,-269 176.5,-231 232.5,-231 232.5,-269"/>
<text text-anchor="middle" x="204.5" y="-253.8" font-family="Times,serif" font-size="14.00" fill="#000000">czmqat</text>
<text text-anchor="middle" x="204.5" y="-238.8" font-family="Times,serif" font-size="14.00" fill="#000000">(SUB)</text>
</g>
<!-- fbr3&#45;&gt;znc3 -->
<g id="edge6" class="edge">
<title>fbr3&#45;&gt;znc3</title>
<path fill="none" stroke="#000000" stroke-dasharray="1,5" d="M109.0778,-258.9061C127.9463,-257.145 148.6815,-255.2097 165.9891,-253.5944"/>
<polygon fill="#000000" stroke="#000000" points="166.6437,-257.0486 176.2751,-252.6343 165.9931,-250.0788 166.6437,-257.0486"/>
</g>
<!-- file1 -->
<g id="node10" class="node">
<title>file1</title>
<polygon fill="none" stroke="#000000" points="354,-37 300,-37 300,-1 354,-1 354,-37"/>
<text text-anchor="middle" x="327" y="-15.3" font-family="Times,serif" font-size="14.00" fill="#000000">file1</text>
</g>
<!-- znc1&#45;&gt;file1 -->
<g id="edge7" class="edge">
<title>znc1&#45;&gt;file1</title>
<path fill="none" stroke="#000000" d="M232.604,-19C249.5707,-19 271.3932,-19 289.7815,-19"/>
<polygon fill="#000000" stroke="#000000" points="289.8691,-22.5001 299.8691,-19 289.8691,-15.5001 289.8691,-22.5001"/>
</g>
<!-- file2 -->
<g id="node11" class="node">
<title>file2</title>
<polygon fill="none" stroke="#000000" points="354,-149 300,-149 300,-113 354,-113 354,-149"/>
<text text-anchor="middle" x="327" y="-127.3" font-family="Times,serif" font-size="14.00" fill="#000000">file2</text>
</g>
<!-- znc2&#45;&gt;file2 -->
<g id="edge8" class="edge">
<title>znc2&#45;&gt;file2</title>
<path fill="none" stroke="#000000" d="M232.604,-131C249.5707,-131 271.3932,-131 289.7815,-131"/>
<polygon fill="#000000" stroke="#000000" points="289.8691,-134.5001 299.8691,-131 289.8691,-127.5001 289.8691,-134.5001"/>
</g>
<!-- file3 -->
<g id="node12" class="node">
<title>file3</title>
<polygon fill="none" stroke="#000000" points="354,-268 300,-268 300,-232 354,-232 354,-268"/>
<text text-anchor="middle" x="327" y="-246.3" font-family="Times,serif" font-size="14.00" fill="#000000">file3</text>
</g>
<!-- znc3&#45;&gt;file3 -->
<g id="edge9" class="edge">
<title>znc3&#45;&gt;file3</title>
<path fill="none" stroke="#000000" d="M232.604,-250C249.5707,-250 271.3932,-250 289.7815,-250"/>
<polygon fill="#000000" stroke="#000000" points="289.8691,-253.5001 299.8691,-250 289.8691,-246.5001 289.8691,-253.5001"/>
</g>
</g>
</svg>
