<?xml version="1.0" encoding="UTF-8" standalone="no"?>
<!DOCTYPE svg PUBLIC "-//W3C//DTD SVG 1.1//EN"
 "http://www.w3.org/Graphics/SVG/1.1/DTD/svg11.dtd">
<!-- Generated by graphviz version 2.40.1 (20161225.0304)
 -->
<!-- Title: replay Pages: 1 -->
<svg width="602pt" height="158pt"
 viewBox="0.00 0.00 602.00 158.00" xmlns="http://www.w3.org/2000/svg" xmlns:xlink="http://www.w3.org/1999/xlink">
<g id="graph0" class="graph" transform="scale(1 1) rotate(0) translate(4 154)">
<title>replay</title>
<polygon fill="#ffffff" stroke="transparent" points="-4,4 -4,-154 598,-154 598,4 -4,4"/>
<!-- file1 -->
<g id="node1" class="node">
<title>file1</title>
<polygon fill="none" stroke="#000000" points="54,-149 0,-149 0,-113 54,-113 54,-149"/>
<text text-anchor="middle" x="27" y="-127.3" font-family="Times,serif" font-size="14.00" fill="#000000">file1</text>
</g>
<!-- znc1 -->
<g id="node4" class="node">
<title>znc1</title>
<polygon fill="none" stroke="#000000" points="150,-150 90,-150 90,-112 150,-112 150,-150"/>
<text text-anchor="middle" x="120" y="-134.8" font-family="Times,serif" font-size="14.00" fill="#000000">czmqat</text>
<text text-anchor="middle" x="120" y="-119.8" font-family="Times,serif" font-size="14.00" fill="#000000">(PUSH)</text>
</g>
<!-- file1&#45;&gt;znc1 -->
<g id="edge1" class="edge">
<title>file1&#45;&gt;znc1</title>
<path fill="none" stroke="#000000" d="M54.4001,-131C62.3231,-131 71.1416,-131 79.6774,-131"/>
<polygon fill="#000000" stroke="#000000" points="79.8698,-134.5001 89.8698,-131 79.8698,-127.5001 79.8698,-134.5001"/>
</g>
<!-- file2 -->
<g id="node2" class="node">
<title>file2</title>
<polygon fill="none" stroke="#000000" points="54,-93 0,-93 0,-57 54,-57 54,-93"/>
<text text-anchor="middle" x="27" y="-71.3" font-family="Times,serif" font-size="14.00" fill="#000000">file2</text>
</g>
<!-- znc2 -->
<g id="node5" class="node">
<title>znc2</title>
<polygon fill="none" stroke="#000000" points="150,-94 90,-94 90,-56 150,-56 150,-94"/>
<text text-anchor="middle" x="120" y="-78.8" font-family="Times,serif" font-size="14.00" fill="#000000">czmqat</text>
<text text-anchor="middle" x="120" y="-63.8" font-family="Times,serif" font-size="14.00" fill="#000000">(PUSH)</text>
</g>
<!-- file2&#45;&gt;znc2 -->
<g id="edge2" class="edge">
<title>file2&#45;&gt;znc2</title>
<path fill="none" stroke="#000000" d="M54.4001,-75C62.3231,-75 71.1416,-75 79.6774,-75"/>
<polygon fill="#000000" stroke="#000000" points="79.8698,-78.5001 89.8698,-75 79.8698,-71.5001 79.8698,-78.5001"/>
</g>
<!-- file3 -->
<g id="node3" class="node">
<title>file3</title>
<polygon fill="none" stroke="#000000" points="54,-37 0,-37 0,-1 54,-1 54,-37"/>
<text text-anchor="middle" x="27" y="-15.3" font-family="Times,serif" font-size="14.00" fill="#000000">file3</text>
</g>
<!-- znc3 -->
<g id="node6" class="node">
<title>znc3</title>
<polygon fill="none" stroke="#000000" points="150,-38 90,-38 90,0 150,0 150,-38"/>
<text text-anchor="middle" x="120" y="-22.8" font-family="Times,serif" font-size="14.00" fill="#000000">czmqat</text>
<text text-anchor="middle" x="120" y="-7.8" font-family="Times,serif" font-size="14.00" fill="#000000">(PUSH)</text>
</g>
<!-- file3&#45;&gt;znc3 -->
<g id="edge3" class="edge">
<title>file3&#45;&gt;znc3</title>
<path fill="none" stroke="#000000" d="M54.4001,-19C62.3231,-19 71.1416,-19 79.6774,-19"/>
<polygon fill="#000000" stroke="#000000" points="79.8698,-22.5001 89.8698,-19 79.8698,-15.5001 79.8698,-22.5001"/>
</g>
<!-- rp1 -->
<g id="node7" class="node">
<title>rp1</title>
<polygon fill="none" stroke="#000000" points="292,-150 186,-150 186,-112 292,-112 292,-150"/>
<text text-anchor="middle" x="239" y="-134.8" font-family="Times,serif" font-size="14.00" fill="#000000">check_replay</text>
<text text-anchor="middle" x="239" y="-119.8" font-family="Times,serif" font-size="14.00" fill="#000000">(PULL &#45;&gt; PUB)</text>
</g>
<!-- znc1&#45;&gt;rp1 -->
<g id="edge4" class="edge">
<title>znc1&#45;&gt;rp1</title>
<path fill="none" stroke="#000000" stroke-dasharray="1,5" d="M150.0287,-131C157.9328,-131 166.7653,-131 175.7123,-131"/>
<polygon fill="#000000" stroke="#000000" points="175.8193,-134.5001 185.8193,-131 175.8192,-127.5001 175.8193,-134.5001"/>
</g>
<!-- rp2 -->
<g id="node8" class="node">
<title>rp2</title>
<polygon fill="none" stroke="#000000" points="292,-94 186,-94 186,-56 292,-56 292,-94"/>
<text text-anchor="middle" x="239" y="-78.8" font-family="Times,serif" font-size="14.00" fill="#000000">check_replay</text>
<text text-anchor="middle" x="239" y="-63.8" font-family="Times,serif" font-size="14.00" fill="#000000">(PULL &#45;&gt; PUB)</text>
</g>
<!-- znc2&#45;&gt;rp2 -->
<g id="edge6" class="edge">
<title>znc2&#45;&gt;rp2</title>
<path fill="none" stroke="#000000" stroke-dasharray="1,5" d="M150.0287,-75C157.9328,-75 166.7653,-75 175.7123,-75"/>
<polygon fill="#000000" stroke="#000000" points="175.8193,-78.5001 185.8193,-75 175.8192,-71.5001 175.8193,-78.5001"/>
</g>
<!-- rp3 -->
<g id="node9" class="node">
<title>rp3</title>
<polygon fill="none" stroke="#000000" points="292,-38 186,-38 186,0 292,0 292,-38"/>
<text text-anchor="middle" x="239" y="-22.8" font-family="Times,serif" font-size="14.00" fill="#000000">check_replay</text>
<text text-anchor="middle" x="239" y="-7.8" font-family="Times,serif" font-size="14.00" fill="#000000">(PULL &#45;&gt; PUB)</text>
</g>
<!-- znc3&#45;&gt;rp3 -->
<g id="edge8" class="edge">
<title>znc3&#45;&gt;rp3</title>
<path fill="none" stroke="#000000" stroke-dasharray="1,5" d="M150.0287,-19C157.9328,-19 166.7653,-19 175.7123,-19"/>
<polygon fill="#000000" stroke="#000000" points="175.8193,-22.5001 185.8193,-19 175.8192,-15.5001 175.8193,-22.5001"/>
</g>
<!-- sorter -->
<g id="node10" class="node">
<title>sorter</title>
<polygon fill="none" stroke="#000000" points="435,-94 328,-94 328,-56 435,-56 435,-94"/>
<text text-anchor="middle" x="381.5" y="-78.8" font-family="Times,serif" font-size="14.00" fill="#000000">check_sorted</text>
<text text-anchor="middle" x="381.5" y="-63.8" font-family="Times,serif" font-size="14.00" fill="#000000">(SUB &#45;&gt; PUSH)</text>
</g>
<!-- rp1&#45;&gt;sorter -->
<g id="edge5" class="edge">
<title>rp1&#45;&gt;sorter</title>
<path fill="none" stroke="#000000" stroke-dasharray="1,5" d="M287.6419,-111.8846C299.2207,-107.3343 311.6882,-102.4348 323.6349,-97.74"/>
<polygon fill="#000000" stroke="#000000" points="325.0504,-100.9443 333.0774,-94.0292 322.4901,-94.4293 325.0504,-100.9443"/>
</g>
<!-- rp2&#45;&gt;sorter -->
<g id="edge7" class="edge">
<title>rp2&#45;&gt;sorter</title>
<path fill="none" stroke="#000000" stroke-dasharray="1,5" d="M292.0617,-75C300.4792,-75 309.2597,-75 317.889,-75"/>
<polygon fill="#000000" stroke="#000000" points="317.9187,-78.5001 327.9187,-75 317.9187,-71.5001 317.9187,-78.5001"/>
</g>
<!-- rp3&#45;&gt;sorter -->
<g id="edge9" class="edge">
<title>rp3&#45;&gt;sorter</title>
<path fill="none" stroke="#000000" stroke-dasharray="1,5" d="M287.6419,-38.1154C299.2207,-42.6657 311.6882,-47.5652 323.6349,-52.26"/>
<polygon fill="#000000" stroke="#000000" points="322.4901,-55.5707 333.0774,-55.9708 325.0504,-49.0557 322.4901,-55.5707"/>
</g>
<!-- tcf -->
<g id="node11" class="node">
<title>tcf</title>
<polygon fill="none" stroke="#000000" points="594,-94 471,-94 471,-56 594,-56 594,-94"/>
<text text-anchor="middle" x="532.5" y="-78.8" font-family="Times,serif" font-size="14.00" fill="#000000">TC finder</text>
<text text-anchor="middle" x="532.5" y="-63.8" font-family="Times,serif" font-size="14.00" fill="#000000">TPReceiver(PULL)</text>
</g>
<!-- sorter&#45;&gt;tcf -->
<g id="edge10" class="edge">
<title>sorter&#45;&gt;tcf</title>
<path fill="none" stroke="#000000" stroke-dasharray="1,5" d="M435.1621,-75C443.4483,-75 452.1184,-75 460.7239,-75"/>
<polygon fill="#000000" stroke="#000000" points="460.7694,-78.5001 470.7694,-75 460.7694,-71.5001 460.7694,-78.5001"/>
</g>
</g>
</svg>
