<?xml version="1.0" encoding="UTF-8" standalone="no"?>
<!DOCTYPE svg PUBLIC "-//W3C//DTD SVG 1.1//EN"
 "http://www.w3.org/Graphics/SVG/1.1/DTD/svg11.dtd">
<!-- Generated by graphviz version 2.40.1 (20161225.0304)
 -->
<!-- Title: peer Pages: 1 -->
<svg width="223pt" height="100pt"
 viewBox="0.00 0.00 223.00 100.00" xmlns="http://www.w3.org/2000/svg" xmlns:xlink="http://www.w3.org/1999/xlink">
<g id="graph0" class="graph" transform="scale(1 1) rotate(0) translate(4 96)">
<title>peer</title>
<polygon fill="#ffffff" stroke="transparent" points="-4,4 -4,-96 219,-96 219,4 -4,4"/>
<!-- source -->
<g id="node1" class="node">
<title>source</title>
<polygon fill="none" stroke="#000000" points="0,-27.5 0,-63.5 95,-63.5 95,-27.5 0,-27.5"/>
<text text-anchor="middle" x="26" y="-41.8" font-family="Times,serif" font-size="14.00" fill="#000000">source</text>
<polyline fill="none" stroke="#000000" points="52,-27.5 52,-63.5 "/>
<text text-anchor="middle" x="73.5" y="-41.8" font-family="Times,serif" font-size="14.00" fill="#000000">PUB</text>
</g>
<!-- stats -->
<g id="node2" class="node">
<title>stats</title>
<polygon fill="none" stroke="#000000" points="131,-55.5 131,-91.5 215,-91.5 215,-55.5 131,-55.5"/>
<text text-anchor="middle" x="152.5" y="-69.8" font-family="Times,serif" font-size="14.00" fill="#000000">SUB</text>
<polyline fill="none" stroke="#000000" points="174,-55.5 174,-91.5 "/>
<text text-anchor="middle" x="194.5" y="-69.8" font-family="Times,serif" font-size="14.00" fill="#000000">stats</text>
</g>
<!-- source&#45;&gt;stats -->
<g id="edge1" class="edge">
<title>source:p&#45;&gt;stats:s</title>
<path fill="none" stroke="#000000" d="M95,-45.5C111.1525,-45.5 111.5508,-63.2803 121.3031,-70.5035"/>
<polygon fill="#000000" stroke="#000000" points="120.4124,-73.8915 131,-73.5 122.4791,-67.2035 120.4124,-73.8915"/>
</g>
<!-- peer -->
<g id="node3" class="node">
<title>peer</title>
<polygon fill="none" stroke="#000000" points="131.5,-.5 131.5,-36.5 214.5,-36.5 214.5,-.5 131.5,-.5"/>
<text text-anchor="middle" x="153" y="-14.8" font-family="Times,serif" font-size="14.00" fill="#000000">SUB</text>
<polyline fill="none" stroke="#000000" points="174.5,-.5 174.5,-36.5 "/>
<text text-anchor="middle" x="194.5" y="-14.8" font-family="Times,serif" font-size="14.00" fill="#000000">peer</text>
</g>
<!-- source&#45;&gt;peer -->
<g id="edge2" class="edge">
<title>source:p&#45;&gt;peer:s</title>
<path fill="none" stroke="#000000" d="M95,-45.5C110.9375,-45.5 111.6348,-28.3547 121.3809,-21.3895"/>
<polygon fill="#000000" stroke="#000000" points="122.4297,-24.729 131,-18.5 120.4158,-18.0249 122.4297,-24.729"/>
</g>
</g>
</svg>
