<?xml version="1.0" encoding="UTF-8" standalone="no"?>
<!DOCTYPE svg PUBLIC "-//W3C//DTD SVG 1.1//EN"
 "http://www.w3.org/Graphics/SVG/1.1/DTD/svg11.dtd">
<!-- Generated by graphviz version 2.40.1 (20161225.0304)
 -->
<!-- Title: embed Pages: 1 -->
<svg width="393pt" height="69pt"
 viewBox="0.00 0.00 393.00 69.00" xmlns="http://www.w3.org/2000/svg" xmlns:xlink="http://www.w3.org/1999/xlink">
<g id="graph0" class="graph" transform="scale(1 1) rotate(0) translate(4 65)">
<title>embed</title>
<polygon fill="#ffffff" stroke="transparent" points="-4,4 -4,-65 389,-65 389,4 -4,4"/>
<!-- source -->
<g id="node1" class="node">
<title>source</title>
<polygon fill="none" stroke="#000000" points="0,-24.5 0,-60.5 95,-60.5 95,-24.5 0,-24.5"/>
<text text-anchor="middle" x="26" y="-38.8" font-family="Times,serif" font-size="14.00" fill="#000000">source</text>
<polyline fill="none" stroke="#000000" points="52,-24.5 52,-60.5 "/>
<text text-anchor="middle" x="73.5" y="-38.8" font-family="Times,serif" font-size="14.00" fill="#000000">PUB</text>
</g>
<!-- peer -->
<g id="node3" class="node">
<title>peer</title>
<polygon fill="none" stroke="#000000" points="131,-7.5 131,-53.5 258,-53.5 258,-7.5 131,-7.5"/>
<text text-anchor="middle" x="152.5" y="-38.3" font-family="Times,serif" font-size="14.00" fill="#000000">SUB</text>
<polyline fill="none" stroke="#000000" points="174,-30.5 174,-53.5 "/>
<text text-anchor="middle" x="194" y="-38.3" font-family="Times,serif" font-size="14.00" fill="#000000">peer</text>
<polyline fill="none" stroke="#000000" points="214,-30.5 214,-53.5 "/>
<text text-anchor="middle" x="236" y="-38.3" font-family="Times,serif" font-size="14.00" fill="#000000">OUT</text>
<polyline fill="none" stroke="#000000" points="131,-30.5 258,-30.5 "/>
<text text-anchor="middle" x="194.5" y="-15.3" font-family="Times,serif" font-size="14.00" fill="#000000">PUSH</text>
</g>
<!-- source&#45;&gt;peer -->
<g id="edge1" class="edge">
<title>source:p&#45;&gt;peer:s</title>
<path fill="none" stroke="#000000" d="M95,-42.5C107,-42.5 112.25,-42.5 120.875,-42.5"/>
<polygon fill="#000000" stroke="#000000" points="121,-46.0001 131,-42.5 121,-39.0001 121,-46.0001"/>
</g>
<!-- stats -->
<g id="node2" class="node">
<title>stats</title>
<polygon fill="none" stroke="#000000" points="294,-.5 294,-36.5 385,-36.5 385,-.5 294,-.5"/>
<text text-anchor="middle" x="319" y="-14.8" font-family="Times,serif" font-size="14.00" fill="#000000">PULL</text>
<polyline fill="none" stroke="#000000" points="344,-.5 344,-36.5 "/>
<text text-anchor="middle" x="364.5" y="-14.8" font-family="Times,serif" font-size="14.00" fill="#000000">stats</text>
</g>
<!-- peer&#45;&gt;stats -->
<g id="edge2" class="edge">
<title>peer:m&#45;&gt;stats:s</title>
<path fill="none" stroke="#000000" d="M258,-18.5C270,-18.5 275.25,-18.5 283.875,-18.5"/>
<polygon fill="#000000" stroke="#000000" points="284,-22.0001 294,-18.5 284,-15.0001 284,-22.0001"/>
</g>
</g>
</svg>
