<?xml version="1.0" encoding="UTF-8" standalone="no"?>
<!DOCTYPE svg PUBLIC "-//W3C//DTD SVG 1.1//EN"
 "http://www.w3.org/Graphics/SVG/1.1/DTD/svg11.dtd">
<!-- Generated by graphviz version 2.40.1 (20161225.0304)
 -->
<!-- Title: inlinet Pages: 1 -->
<svg width="393pt" height="100pt"
 viewBox="0.00 0.00 393.00 100.00" xmlns="http://www.w3.org/2000/svg" xmlns:xlink="http://www.w3.org/1999/xlink">
<g id="graph0" class="graph" transform="scale(1 1) rotate(0) translate(4 96)">
<title>inlinet</title>
<polygon fill="#ffffff" stroke="transparent" points="-4,4 -4,-96 389,-96 389,4 -4,4"/>
<!-- source -->
<g id="node1" class="node">
<title>source</title>
<polygon fill="none" stroke="#000000" points="0,-39.5 0,-75.5 95,-75.5 95,-39.5 0,-39.5"/>
<text text-anchor="middle" x="26" y="-53.8" font-family="Times,serif" font-size="14.00" fill="#000000">source</text>
<polyline fill="none" stroke="#000000" points="52,-39.5 52,-75.5 "/>
<text text-anchor="middle" x="73.5" y="-53.8" font-family="Times,serif" font-size="14.00" fill="#000000">PUB</text>
</g>
<!-- tap -->
<g id="node2" class="node">
<title>tap</title>
<polygon fill="none" stroke="#000000" points="131,-22.5 131,-68.5 258,-68.5 258,-22.5 131,-22.5"/>
<text text-anchor="middle" x="152.5" y="-53.3" font-family="Times,serif" font-size="14.00" fill="#000000">SUB</text>
<polyline fill="none" stroke="#000000" points="174,-45.5 174,-68.5 "/>
<text text-anchor="middle" x="190.5" y="-53.3" font-family="Times,serif" font-size="14.00" fill="#000000">tap</text>
<polyline fill="none" stroke="#000000" points="207,-45.5 207,-68.5 "/>
<text text-anchor="middle" x="232.5" y="-53.3" font-family="Times,serif" font-size="14.00" fill="#000000">PUSH</text>
<polyline fill="none" stroke="#000000" points="131,-45.5 258,-45.5 "/>
<text text-anchor="middle" x="194.5" y="-30.3" font-family="Times,serif" font-size="14.00" fill="#000000">PUSH</text>
</g>
<!-- source&#45;&gt;tap -->
<g id="edge1" class="edge">
<title>source:p&#45;&gt;tap:s</title>
<path fill="none" stroke="#000000" d="M95,-57.5C107,-57.5 112.25,-57.5 120.875,-57.5"/>
<polygon fill="#000000" stroke="#000000" points="121,-61.0001 131,-57.5 121,-54.0001 121,-61.0001"/>
</g>
<!-- stats -->
<g id="node3" class="node">
<title>stats</title>
<polygon fill="none" stroke="#000000" points="294,-.5 294,-36.5 385,-36.5 385,-.5 294,-.5"/>
<text text-anchor="middle" x="319" y="-14.8" font-family="Times,serif" font-size="14.00" fill="#000000">PULL</text>
<polyline fill="none" stroke="#000000" points="344,-.5 344,-36.5 "/>
<text text-anchor="middle" x="364.5" y="-14.8" font-family="Times,serif" font-size="14.00" fill="#000000">stats</text>
</g>
<!-- tap&#45;&gt;stats -->
<g id="edge3" class="edge">
<title>tap:t&#45;&gt;stats:s</title>
<path fill="none" stroke="#000000" d="M258,-33.5C271.2708,-33.5 275.1628,-24.7073 284.0372,-20.5857"/>
<polygon fill="#000000" stroke="#000000" points="284.9294,-23.9749 294,-18.5 283.495,-17.1234 284.9294,-23.9749"/>
</g>
<!-- peer -->
<g id="node4" class="node">
<title>peer</title>
<polygon fill="none" stroke="#000000" points="294.5,-55.5 294.5,-91.5 384.5,-91.5 384.5,-55.5 294.5,-55.5"/>
<text text-anchor="middle" x="319.5" y="-69.8" font-family="Times,serif" font-size="14.00" fill="#000000">PULL</text>
<polyline fill="none" stroke="#000000" points="344.5,-55.5 344.5,-91.5 "/>
<text text-anchor="middle" x="364.5" y="-69.8" font-family="Times,serif" font-size="14.00" fill="#000000">peer</text>
</g>
<!-- tap&#45;&gt;peer -->
<g id="edge2" class="edge">
<title>tap:p&#45;&gt;peer:s</title>
<path fill="none" stroke="#000000" d="M258,-57.5C271.6994,-57.5 275.4464,-67.0713 284.6361,-71.4083"/>
<polygon fill="#000000" stroke="#000000" points="283.9914,-74.8493 294.5,-73.5 285.4436,-68.0016 283.9914,-74.8493"/>
</g>
</g>
</svg>
