<?xml version="1.0" encoding="UTF-8" standalone="no"?>
<!DOCTYPE svg PUBLIC "-//W3C//DTD SVG 1.1//EN"
 "http://www.w3.org/Graphics/SVG/1.1/DTD/svg11.dtd">
<!-- Generated by graphviz version 2.40.1 (20161225.0304)
 -->
<!-- Title: embed Pages: 1 -->
<svg width="415pt" height="70pt"
 viewBox="0.00 0.00 415.00 70.00" xmlns="http://www.w3.org/2000/svg" xmlns:xlink="http://www.w3.org/1999/xlink">
<g id="graph0" class="graph" transform="scale(1 1) rotate(0) translate(4 66)">
<title>embed</title>
<polygon fill="#ffffff" stroke="transparent" points="-4,4 -4,-66 411,-66 411,4 -4,4"/>
<!-- source -->
<g id="node1" class="node">
<title>source</title>
<polygon fill="none" stroke="#000000" points="0,-25.5 0,-61.5 95,-61.5 95,-25.5 0,-25.5"/>
<text text-anchor="middle" x="26" y="-39.8" font-family="Times,serif" font-size="14.00" fill="#000000">source</text>
<polyline fill="none" stroke="#000000" points="52,-25.5 52,-61.5 "/>
<text text-anchor="middle" x="73.5" y="-39.8" font-family="Times,serif" font-size="14.00" fill="#000000">PUB</text>
</g>
<!-- peer -->
<g id="node3" class="node">
<title>peer</title>
<polygon fill="none" stroke="#000000" points="131,-8.5 131,-54.5 258,-54.5 258,-8.5 131,-8.5"/>
<text text-anchor="middle" x="152.5" y="-39.3" font-family="Times,serif" font-size="14.00" fill="#000000">SUB</text>
<polyline fill="none" stroke="#000000" points="174,-31.5 174,-54.5 "/>
<text text-anchor="middle" x="194" y="-39.3" font-family="Times,serif" font-size="14.00" fill="#000000">peer</text>
<polyline fill="none" stroke="#000000" points="214,-31.5 214,-54.5 "/>
<text text-anchor="middle" x="236" y="-39.3" font-family="Times,serif" font-size="14.00" fill="#000000">OUT</text>
<polyline fill="none" stroke="#000000" points="131,-31.5 258,-31.5 "/>
<text text-anchor="middle" x="162" y="-16.3" font-family="Times,serif" font-size="14.00" fill="#000000">stats</text>
<polyline fill="none" stroke="#000000" points="193,-8.5 193,-31.5 "/>
<text text-anchor="middle" x="225.5" y="-16.3" font-family="Times,serif" font-size="14.00" fill="#000000">PUB</text>
</g>
<!-- source&#45;&gt;peer -->
<g id="edge1" class="edge">
<title>source:p&#45;&gt;peer:s</title>
<path fill="none" stroke="#000000" d="M95,-43.5C107,-43.5 112.25,-43.5 120.875,-43.5"/>
<polygon fill="#000000" stroke="#000000" points="121,-47.0001 131,-43.5 121,-40.0001 121,-47.0001"/>
</g>
<!-- stats -->
<g id="node2" class="node">
<title>stats</title>
<polygon fill="none" stroke="#000000" points="294,-.5 294,-38.5 407,-38.5 407,-.5 294,-.5"/>
<text text-anchor="middle" x="315.5" y="-15.8" font-family="Times,serif" font-size="14.00" fill="#000000">SUB</text>
<polyline fill="none" stroke="#000000" points="337,-.5 337,-38.5 "/>
<text text-anchor="middle" x="372" y="-23.3" font-family="Times,serif" font-size="14.00" fill="#000000">stats</text>
<text text-anchor="middle" x="372" y="-8.3" font-family="Times,serif" font-size="14.00" fill="#000000">consumer</text>
</g>
<!-- peer&#45;&gt;stats -->
<g id="edge2" class="edge">
<title>peer:m&#45;&gt;stats:s</title>
<path fill="none" stroke="#000000" d="M258,-19.5C270,-19.5 275.25,-19.5 283.875,-19.5"/>
<polygon fill="#000000" stroke="#000000" points="284,-23.0001 294,-19.5 284,-16.0001 284,-23.0001"/>
</g>
</g>
</svg>
